<svg xmlns="http://www.w3.org/2000/svg" width="49.852" height="58" viewBox="0 0 49.852 58">
    <g id="Groupe_39" data-name="Groupe 39" transform="translate(0)">
        <path id="Tracé_3" data-name="Tracé 3" d="M55.327,40.787V35.719a2.574,2.574,0,0,0-2.572-2.572H51.07V25.518a11.391,11.391,0,0,1,10.5-11.342V.026L38.715,9.893V30.407a24.054,24.054,0,0,0,11.3,20.4l11.55,7.22V40.787Z" transform="translate(-38.715 -0.025)" fill="#5c5c5c"/>
        <path id="Tracé_4" data-name="Tracé 4" d="M184.738,174.3v-3.23h3.372v3.23h2.945v-1.7a5.955,5.955,0,0,1,4.257-5.7v-4.5a8.012,8.012,0,0,0-8-8h-1.771a8.012,8.012,0,0,0-8,8v4.5a5.955,5.955,0,0,1,4.258,5.7v1.7Zm3.376-14.1h3.372v3.372h-3.372Zm-3.377,3.36h3.372v3.372h-3.372Zm-3.377.012V160.2h3.372v3.372Z" transform="translate(-161.444 -136.908)" fill="#5c5c5c"/>
        <path id="Tracé_5" data-name="Tracé 5" d="M270.209,0V14.142A11.389,11.389,0,0,1,280.86,25.494v7.629h-1.686a2.574,2.574,0,0,0-2.571,2.571v5.067h-6.394V58l11.641-7.229a24.052,24.052,0,0,0,11.364-20.433V9.867Z" transform="translate(-243.361)" fill="#5c5c5c"/>
    </g>
</svg>